<svg width="885" height="711" viewBox="0 0 885 711" fill="none" xmlns="http://www.w3.org/2000/svg">
<path d="M884.68 335.273C883.36 350.042 867.16 391.333 860.95 405.673C796.7 554.028 666.61 653.156 507.46 680.136C489.82 683.108 472.11 685.592 454.34 687.584C436.84 689.423 354.67 694.986 348.15 710.407L347.66 667.869C376.02 662.976 408.37 661.811 437.47 657.725C461.84 654.391 485.9 649.091 509.42 641.876C598.17 615.052 690.07 556.825 750.4 486.243C661.41 557.56 556.53 606.354 444.66 628.483C418.18 633.817 389.03 638.49 362.01 640.108C361.48 629.65 361.64 619.168 362.49 608.73C373.25 476.804 479.02 415.982 599.43 408.105C656.19 404.392 703.22 414.811 760.33 400.954C817.01 387.201 841.34 372.127 884.68 335.273Z" fill="black"/>
<path d="M5.30084 177.449C6.42084 177.655 7.54081 177.845 8.65081 178.142C172.481 222.211 315.221 357.616 314.951 535.641C314.891 573.612 309.611 605.31 300.831 642.075C205.011 555.647 141.531 467.707 89.1708 349.392C87.3408 343.162 86.2508 340.95 83.3708 335.101C84.4308 341.371 85.3708 347.352 86.9008 353.534C111.311 464.641 169.031 549.4 244.781 632.172C184.471 604.913 117.941 548.082 79.5809 494.678C12.2309 400.906 -11.7692 290.46 5.30084 177.449Z" fill="black"/>
<path d="M316.9 0C323.42 4.155 333.04 13.61 338.75 19.13C445 121.845 523.3 293.553 401.21 418.04C409.16 340.81 404.85 279.447 386.34 204.472C381.38 184.967 374.88 165.889 366.89 147.418C381.41 232.35 379.22 307.74 365.83 392.498C334.98 362.614 304.46 314.745 290.79 274.167C257.91 176.534 273.59 90.176 316.9 0Z" fill="black"/>
</svg>
